<svg width="818" height="287" viewBox="0 0 818 287" fill="none" xmlns="http://www.w3.org/2000/svg">
<g filter="url(#filter0_d_22_96)">
<circle cx="143.5" cy="139.5" r="132.5" stroke="#2563EB" stroke-width="14" stroke-linejoin="round" shape-rendering="crispEdges"/>
</g>
<path d="M283 139.5C283 102.502 268.303 67.0199 242.141 40.8586C215.98 14.6973 180.498 2.79325e-06 143.5 0C106.502 -2.79325e-06 71.0199 14.6973 44.8586 40.8586C18.6973 67.0199 4.00001 102.502 4 139.5L143.5 139.5H283Z" fill="#2563EB"/>
<path d="M353.182 90.9091V80.9091H423V90.9091H393.727V174H382.455V90.9091H353.182ZM449.989 175.636C445.564 175.636 441.549 174.803 437.943 173.136C434.337 171.439 431.473 169 429.352 165.818C427.231 162.606 426.17 158.727 426.17 154.182C426.17 150.182 426.958 146.939 428.534 144.455C430.11 141.939 432.216 139.97 434.852 138.545C437.489 137.121 440.398 136.061 443.58 135.364C446.792 134.636 450.019 134.061 453.261 133.636C457.504 133.091 460.943 132.682 463.58 132.409C466.246 132.106 468.186 131.606 469.398 130.909C470.64 130.212 471.261 129 471.261 127.273V126.909C471.261 122.424 470.034 118.939 467.58 116.455C465.155 113.97 461.473 112.727 456.534 112.727C451.413 112.727 447.398 113.848 444.489 116.091C441.58 118.333 439.534 120.727 438.352 123.273L428.17 119.636C429.989 115.394 432.413 112.091 435.443 109.727C438.504 107.333 441.837 105.667 445.443 104.727C449.08 103.758 452.655 103.273 456.17 103.273C458.413 103.273 460.989 103.545 463.898 104.091C466.837 104.606 469.67 105.682 472.398 107.318C475.155 108.955 477.443 111.424 479.261 114.727C481.08 118.03 481.989 122.455 481.989 128V174H471.261V164.545H470.716C469.989 166.061 468.777 167.682 467.08 169.409C465.383 171.136 463.125 172.606 460.307 173.818C457.489 175.03 454.049 175.636 449.989 175.636ZM451.625 166C455.867 166 459.443 165.167 462.352 163.5C465.292 161.833 467.504 159.682 468.989 157.045C470.504 154.409 471.261 151.636 471.261 148.727V138.909C470.807 139.455 469.807 139.955 468.261 140.409C466.746 140.833 464.989 141.212 462.989 141.545C461.019 141.848 459.095 142.121 457.216 142.364C455.367 142.576 453.867 142.758 452.716 142.909C449.928 143.273 447.322 143.864 444.898 144.682C442.504 145.47 440.564 146.667 439.08 148.273C437.625 149.848 436.898 152 436.898 154.727C436.898 158.455 438.277 161.273 441.034 163.182C443.822 165.061 447.352 166 451.625 166ZM509.568 104.182L526.295 132.727L543.023 104.182H555.386L532.841 139.091L555.386 174H543.023L526.295 146.909L509.568 174H497.205L519.386 139.091L497.205 104.182H509.568Z" fill="black"/>
<path d="M568.966 174V80.9091H605.693C612.754 80.9091 618.769 82.2576 623.739 84.9545C628.708 87.6212 632.496 91.3333 635.102 96.0909C637.739 100.818 639.057 106.273 639.057 112.455C639.057 118.636 637.723 124.091 635.057 128.818C632.39 133.545 628.527 137.227 623.466 139.864C618.436 142.5 612.345 143.818 605.193 143.818H581.784V128.045H602.011C605.799 128.045 608.92 127.394 611.375 126.091C613.86 124.758 615.708 122.924 616.92 120.591C618.163 118.227 618.784 115.515 618.784 112.455C618.784 109.364 618.163 106.667 616.92 104.364C615.708 102.03 613.86 100.227 611.375 98.9545C608.89 97.6515 605.739 97 601.92 97H588.648V174H568.966ZM669.511 175.318C665.057 175.318 661.087 174.545 657.602 173C654.117 171.424 651.36 169.106 649.33 166.045C647.33 162.955 646.33 159.106 646.33 154.5C646.33 150.621 647.042 147.364 648.466 144.727C649.89 142.091 651.83 139.97 654.284 138.364C656.739 136.758 659.527 135.545 662.648 134.727C665.799 133.909 669.102 133.333 672.557 133C676.617 132.576 679.89 132.182 682.375 131.818C684.86 131.424 686.663 130.848 687.784 130.091C688.905 129.333 689.466 128.212 689.466 126.727V126.455C689.466 123.576 688.557 121.348 686.739 119.773C684.951 118.197 682.405 117.409 679.102 117.409C675.617 117.409 672.845 118.182 670.784 119.727C668.723 121.242 667.36 123.152 666.693 125.455L648.784 124C649.693 119.758 651.481 116.091 654.148 113C656.814 109.879 660.254 107.485 664.466 105.818C668.708 104.121 673.617 103.273 679.193 103.273C683.072 103.273 686.784 103.727 690.33 104.636C693.905 105.545 697.072 106.955 699.83 108.864C702.617 110.773 704.814 113.227 706.42 116.227C708.027 119.197 708.83 122.758 708.83 126.909V174H690.466V164.318H689.92C688.799 166.5 687.299 168.424 685.42 170.091C683.542 171.727 681.284 173.015 678.648 173.955C676.011 174.864 672.966 175.318 669.511 175.318ZM675.057 161.955C677.905 161.955 680.42 161.394 682.602 160.273C684.784 159.121 686.496 157.576 687.739 155.636C688.981 153.697 689.602 151.5 689.602 149.045V141.636C688.996 142.03 688.163 142.394 687.102 142.727C686.072 143.03 684.905 143.318 683.602 143.591C682.299 143.833 680.996 144.061 679.693 144.273C678.39 144.455 677.208 144.621 676.148 144.773C673.875 145.106 671.89 145.636 670.193 146.364C668.496 147.091 667.178 148.076 666.239 149.318C665.299 150.53 664.83 152.045 664.83 153.864C664.83 156.5 665.784 158.515 667.693 159.909C669.633 161.273 672.087 161.955 675.057 161.955ZM743.216 80.9091V174H723.852V80.9091H743.216Z" fill="#2563EB"/>
<defs>
<filter id="filter0_d_22_96" x="0" y="0" width="287" height="287" filterUnits="userSpaceOnUse" color-interpolation-filters="sRGB">
<feFlood flood-opacity="0" result="BackgroundImageFix"/>
<feColorMatrix in="SourceAlpha" type="matrix" values="0 0 0 0 0 0 0 0 0 0 0 0 0 0 0 0 0 0 127 0" result="hardAlpha"/>
<feOffset dy="4"/>
<feGaussianBlur stdDeviation="2"/>
<feComposite in2="hardAlpha" operator="out"/>
<feColorMatrix type="matrix" values="0 0 0 0 0.145098 0 0 0 0 0.388235 0 0 0 0 0.921569 0 0 0 1 0"/>
<feBlend mode="normal" in2="BackgroundImageFix" result="effect1_dropShadow_22_96"/>
<feBlend mode="normal" in="SourceGraphic" in2="effect1_dropShadow_22_96" result="shape"/>
</filter>
</defs>
</svg>
